<?xml version="1.0" encoding="utf-8"?>
<svg viewBox="311.4000244140625 23.5 183.0999755859375 165.89999389648438" width="183.0999755859375" height="165.89999389648438" xmlns="http://www.w3.org/2000/svg"><path id="path3702" class="st3" d="M412.7,189.1c-9-0.9-15.7-2.5-22.7-5.2c-6.4-2.5-14.5-7.3-19.7-11.5&#10;&#9;&#9;c-5.3-4.3-11.7-11.3-15.3-16.6c-1.7-2.6-5.4-8.9-5.3-9.1c0.1-0.1,1.6,0.1,3.4,0.5c3.6,0.6,14.2,0.8,17.6,0.4l1.9-0.2l1.7,2.6&#10;&#9;&#9;c4.7,7.2,13.1,12.9,21.6,14.8c4.1,0.9,11.3,0.8,15.1-0.1c11.9-3,21.2-11.5,25-22.8c2.9-8.8,2.3-18-1.7-26.2c-2-4-4.1-6.9-7.4-10.1&#10;&#9;&#9;l-2.4-2.3l0.9-3.7c0.5-2,1.1-4.8,1.3-6.2c0.6-3.4,0.6-14.5,0-18.2c-2.1-13.5-7.8-25.1-17-34.9l-2.6-2.7l1.1-0.2&#10;&#9;&#9;c2.5-0.5,13.7-0.6,17.4-0.2c30.4,3.1,55.9,23.7,65.2,52.6c1.4,4.2,2.2,7.8,2.9,12.6c0.8,5.3,0.8,16.2,0,21.5&#10;&#9;&#9;c-5.3,33.9-31,59.7-64.6,64.7C425.6,189,415.5,189.4,412.7,189.1z M391.8,155.9c-8.9-2.5-14.8-10.8-14.1-20&#10;&#9;&#9;c0.4-4.8,2.4-8.9,6.1-12.3c2.6-2.4,4.8-3.6,8.1-4.5c12-3.1,23.7,6,23.7,18.4c0,7.9-4.9,14.9-12.4,17.8&#10;&#9;&#9;C400.4,156.4,394.6,156.7,391.8,155.9z M353.4,124.3c-10.8-1.9-19.4-6.2-26.8-13.4c-10.1-9.8-15.2-21.9-15.2-36&#10;&#9;&#9;c0-18,9.4-34.2,25.1-43.2c11-6.3,24.5-8.2,36.9-5.1c17.5,4.4,31.6,18.4,36.1,35.9c2.6,10.2,1.7,22.6-2.4,31.9l-0.8,1.8l-1.3-0.2&#10;&#9;&#9;c-1.8-0.3-7.7,0.4-10.5,1.1c-5.7,1.6-10.5,4.3-14.8,8.3c-5,4.7-7.9,9.6-9.9,16.6c-0.3,1.1-0.8,2-1.1,2.2&#10;&#9;&#9;C367.5,124.8,356.1,124.8,353.4,124.3z" style="fill: rgb(204, 204, 204); opacity: 1;" transform="matrix(1, 0, 0, 1, 0, 0)"/></svg>